<?xml version="1.0" encoding="UTF-8" standalone="no"?>
<svg
   xmlns:dc="http://purl.org/dc/elements/1.1/"
   xmlns:cc="http://creativecommons.org/ns#"
   xmlns:rdf="http://www.w3.org/1999/02/22-rdf-syntax-ns#"
   xmlns:svg="http://www.w3.org/2000/svg"
   xmlns="http://www.w3.org/2000/svg"
   id="svg9"
   height="97.815404mm"
   width="202.2094mm"
   version="1.0">
  <metadata
     id="metadata13">
    <rdf:RDF>
      <cc:Work
         rdf:about="">
        <dc:format>image/svg+xml</dc:format>
        <dc:type
           rdf:resource="http://purl.org/dc/dcmitype/StillImage" />
      </cc:Work>
    </rdf:RDF>
  </metadata>
  <defs
     id="defs3">
    <pattern
       y="0"
       x="0"
       height="6"
       width="6"
       patternUnits="userSpaceOnUse"
       id="WMFhbasepattern" />
  </defs>
  <path
     id="path5"
     d="  M 764.16,184.82388   L 763.6824,175.27226   L 762.20184,165.91167   L 759.76608,156.6466   L 756.37512,147.57255   L 752.12448,138.59403   L 746.9664,129.8543   L 740.9964,121.25784   L 734.11896,112.85241   L 726.47736,104.68577   L 718.02384,96.710169   L 708.85392,88.973356   L 698.91984,81.475333   L 688.26936,74.2161   L 676.90248,67.243416   L 664.91472,60.557281   L 652.25832,54.109937   L 638.98104,47.996899   L 625.13064,42.218168   L 610.70712,36.725985   L 595.71048,31.56811   L 580.18848,26.744541   L 564.18888,22.303037   L 547.71168,18.243597   L 530.80464,14.518465   L 513.46776,11.223155   L 495.70104,8.3099108   L 477.55224,5.8264892   L 459.06912,3.7728906   L 440.25168,2.1491149   L 421.14768,0.95516217   L 401.75712,0.23879054   L 382.08,0   L 362.40288,0.23879054   L 343.01232,0.95516217   L 323.90832,2.1491149   L 305.09088,3.7728906   L 286.60776,5.8264892   L 268.45896,8.3099108   L 250.69224,11.223155   L 233.35536,14.518465   L 216.44832,18.243597   L 199.97112,22.303037   L 183.97152,26.744541   L 168.44952,31.56811   L 153.45288,36.725985   L 139.02936,42.218168   L 125.17896,47.996899   L 111.90168,54.109937   L 99.24528,60.557281   L 87.25752,67.243416   L 75.89064,74.2161   L 65.24016,81.475333   L 55.30608,88.973356   L 46.13616,96.710169   L 37.68264,104.68577   L 30.04104,112.85241   L 23.1636,121.25784   L 17.1936,129.8543   L 12.03552,138.59403   L 7.78488,147.57255   L 4.39392,156.6466   L 1.95816,165.91167   L 0.4776,175.27226   L 0,184.82388   L 0.4776,194.32774   L 1.95816,203.68833   L 4.39392,212.9534   L 7.78488,222.02745   L 12.03552,231.00597   L 17.1936,239.7457   L 23.1636,248.34216   L 30.04104,256.74759   L 37.68264,264.91423   L 46.13616,272.88983   L 55.30608,280.62664   L 65.24016,288.12467   L 75.89064,295.3839   L 87.25752,302.35658   L 99.24528,309.04272   L 111.90168,315.49006   L 125.17896,321.6031   L 139.02936,327.38183   L 153.45288,332.87401   L 168.44952,338.03189   L 183.97152,342.85546   L 199.97112,347.29696   L 216.44832,351.3564   L 233.35536,355.08154   L 250.69224,358.37684   L 268.45896,361.29009   L 286.60776,363.77351   L 305.09088,365.82711   L 323.90832,367.45089   L 343.01232,368.64484   L 362.40288,369.36121   L 382.08,369.6   L 401.75712,369.36121   L 421.14768,368.64484   L 440.25168,367.45089   L 459.06912,365.82711   L 477.55224,363.77351   L 495.70104,361.29009   L 513.46776,358.37684   L 530.80464,355.08154   L 547.71168,351.3564   L 564.18888,347.29696   L 580.18848,342.85546   L 595.71048,338.03189   L 610.70712,332.87401   L 625.13064,327.38183   L 638.98104,321.6031   L 652.25832,315.49006   L 664.91472,309.04272   L 676.90248,302.35658   L 688.26936,295.3839   L 698.91984,288.12467   L 708.85392,280.62664   L 718.02384,272.88983   L 726.47736,264.91423   L 734.11896,256.74759   L 740.9964,248.34216   L 746.9664,239.7457   L 752.12448,231.00597   L 756.37512,222.02745   L 759.76608,212.9534   L 762.20184,203.68833   L 763.6824,194.32774   L 764.16,184.82388  z "
     style="fill:#ffffff;fill-rule:nonzero;fill-opacity:1;stroke:none;" />
  <path
     id="path7"
     d="  M 630.47976,267.82747   L 630.76632,268.73488   L 631.00512,269.7378   L 631.19616,270.69296   L 631.33944,271.69588   L 631.53048,272.65104   L 631.72152,273.51069   L 631.8648,273.89275   L 632.00808,274.27482   L 632.15136,274.60912   L 632.3424,274.89567   L 632.77224,275.0867   L 633.20208,275.22998   L 633.58416,275.32549   L 633.96624,275.32549   L 634.30056,275.32549   L 634.63488,275.22998   L 634.92144,275.0867   L 635.25576,274.94343   L 635.49456,274.7524   L 635.78112,274.51361   L 636.01992,274.22706   L 636.25872,273.89275   L 636.6408,273.22414   L 637.02288,272.41225   L 637.30944,271.5526   L 637.54824,270.6452   L 637.78704,269.7378   L 637.93032,268.83039   L 638.02584,267.92299   L 638.12136,267.06334   L 638.12136,266.25145   L 638.12136,265.58284   L 638.12136,264.81871   L 638.02584,264.05458   L 637.93032,263.24269   L 637.78704,262.43081   L 637.596,261.61892   L 637.40496,260.75927   L 637.1184,259.94738   L 636.83184,259.08774   L 636.49752,258.27585   L 636.1632,257.46396   L 635.78112,256.65207   L 635.35128,255.84019   L 634.92144,255.07606   L 634.44384,254.26417   L 633.91848,253.5478   L 633.39312,252.83143   L 632.82,252.16281   L 632.19912,251.4942   L 631.57824,250.87334   L 630.9096,250.30025   L 630.24096,249.77491   L 629.52456,249.29733   L 628.80816,248.8675   L 628.044,248.48544   L 627.27984,248.15113   L 626.46792,247.91234   L 625.656,247.72131   L 624.79632,247.57803   L 623.93664,247.53028   L 623.07696,247.53028   L 622.16952,247.62579   L 621.21432,247.81682   L 620.78448,247.91234   L 620.35464,248.10337   L 619.9248,248.2944   L 619.49496,248.48544   L 619.16064,248.72423   L 618.82632,249.01078   L 618.53976,249.29733   L 618.2532,249.63163   L 618.06216,249.96594   L 617.87112,250.348   L 617.7756,250.73007   L 617.72784,251.15989   L 617.7756,251.58971   L 617.87112,252.0673   L 618.0144,252.54488   L 618.2532,253.02246   L 619.39944,253.83435   L 620.49792,254.64623   L 621.45312,255.45812   L 622.36056,256.27001   L 621.73968,256.55656   L 621.1188,256.93862   L 620.45016,257.32069   L 619.73376,257.75051   L 614.6712,261.28461   L 609.4176,264.67544   L 603.87744,268.0185   L 598.194,271.2183   L 592.27176,274.32257   L 586.11072,277.28358   L 579.8064,280.19682   L 573.31104,282.96679   L 566.6724,285.64125   L 559.84272,288.17243   L 552.822,290.60809   L 545.658,292.94824   L 538.39848,295.19287   L 530.94792,297.29422   L 523.40184,299.30006   L 515.71248,301.21039   L 507.87984,302.97744   L 499.99944,304.64897   L 491.97576,306.17723   L 483.85656,307.60998   L 475.6896,308.9472   L 467.42712,310.14116   L 459.06912,311.23959   L 450.66336,312.19475   L 442.20984,313.0544   L 433.70856,313.81853   L 425.15952,314.43938   L 416.61048,314.91697   L 407.96592,315.29903   L 399.36912,315.58558   L 390.72456,315.72885   L 382.08,315.72885   L 373.43544,315.72885   L 364.79088,315.58558   L 356.19408,315.29903   L 347.54952,314.91697   L 339.00048,314.43938   L 330.45144,313.81853   L 321.95016,313.0544   L 313.44888,312.19475   L 305.09088,311.23959   L 296.73288,310.14116   L 288.4704,308.9472   L 280.25568,307.60998   L 272.18424,306.17723   L 264.16056,304.64897   L 256.2324,302.97744   L 248.44752,301.21039   L 240.75816,299.30006   L 233.21208,297.29422   L 225.76152,295.19287   L 218.502,292.94824   L 211.338,290.60809   L 204.31728,288.17243   L 197.4876,285.64125   L 190.84896,282.96679   L 184.3536,280.19682   L 178.04928,277.28358   L 171.88824,274.32257   L 165.966,271.2183   L 160.28256,268.0185   L 154.7424,264.67544   L 149.4888,261.28461   L 144.42624,257.75051   L 143.7576,257.36845   L 143.13672,256.98638   L 142.51584,256.65207   L 141.94272,256.31777   L 142.85016,255.50588   L 143.90088,254.64623   L 144.9516,253.83435   L 146.1456,253.02246   L 146.3844,252.54488   L 146.52768,252.0673   L 146.6232,251.58971   L 146.67096,251.15989   L 146.6232,250.73007   L 146.52768,250.348   L 146.33664,249.96594   L 146.1456,249.63163   L 145.9068,249.29733   L 145.57248,249.01078   L 145.23816,248.72423   L 144.90384,248.48544   L 144.474,248.2944   L 144.09192,248.10337   L 143.61432,247.91234   L 143.18448,247.81682   L 142.27704,247.62579   L 141.3696,247.53028   L 140.46216,247.53028   L 139.60248,247.57803   L 138.7428,247.72131   L 137.93088,247.91234   L 137.11896,248.15113   L 136.3548,248.48544   L 135.59064,248.8675   L 134.87424,249.29733   L 134.15784,249.77491   L 133.4892,250.30025   L 132.82056,250.87334   L 132.19968,251.4942   L 131.62656,252.16281   L 131.05344,252.83143   L 130.48032,253.5478   L 130.00272,254.26417   L 129.52512,255.07606   L 129.04752,255.84019   L 128.61768,256.65207   L 128.2356,257.46396   L 127.90128,258.27585   L 127.56696,259.08774   L 127.2804,259.94738   L 127.0416,260.75927   L 126.8028,261.61892   L 126.61176,262.43081   L 126.46848,263.24269   L 126.37296,264.05458   L 126.27744,264.81871   L 126.27744,265.58284   L 126.27744,266.25145   L 126.3252,267.06334   L 126.37296,267.92299   L 126.46848,268.83039   L 126.65952,269.7378   L 126.85056,270.6452   L 127.08936,271.5526   L 127.37592,272.41225   L 127.758,273.22414   L 128.14008,273.89275   L 128.37888,274.22706   L 128.61768,274.51361   L 128.90424,274.7524   L 129.1908,274.94343   L 129.47736,275.0867   L 129.76392,275.22998   L 130.09824,275.32549   L 130.48032,275.32549   L 130.81464,275.32549   L 131.19672,275.22998   L 131.62656,275.0867   L 132.0564,274.89567   L 132.24744,274.60912   L 132.39072,274.27482   L 132.534,273.94051   L 132.67728,273.55844   L 132.86832,272.6988   L 133.05936,271.79139   L 133.20264,270.88399   L 133.39368,269.88107   L 133.58472,268.97367   L 133.87128,268.06626   L 134.25336,268.49608   L 134.73096,268.97367   L 135.20856,269.45125   L 135.68616,269.88107   L 141.1308,273.89275   L 146.76648,277.85667   L 152.5932,281.67732   L 158.65872,285.40246   L 164.86752,289.03207   L 171.26736,292.51841   L 177.85824,295.957   L 184.64016,299.20455   L 191.56536,302.40434   L 198.63384,305.46086   L 205.89336,308.42186   L 213.2484,311.23959   L 220.79448,313.9618   L 228.43608,316.54074   L 236.22096,318.97641   L 244.14912,321.31655   L 252.1728,323.51343   L 260.292,325.56702   L 268.55448,327.52511   L 276.86472,329.29216   L 285.27048,330.96369   L 293.77176,332.49195   L 302.36856,333.87694   L 311.01312,335.11865   L 319.7532,336.21708   L 328.54104,337.17224   L 337.37664,337.98413   L 346.21224,338.65275   L 355.14336,339.13033   L 364.12224,339.51239   L 373.10112,339.70342   L 382.08,339.75118   L 391.05888,339.70342   L 400.03776,339.51239   L 409.01664,339.13033   L 417.9,338.65275   L 426.78336,337.98413   L 435.61896,337.17224   L 444.4068,336.21708   L 453.14688,335.11865   L 461.79144,333.87694   L 470.34048,332.49195   L 478.88952,330.96369   L 487.29528,329.29216   L 495.60552,327.52511   L 503.868,325.56702   L 511.9872,323.51343   L 520.01088,321.31655   L 527.93904,318.97641   L 535.72392,316.54074   L 543.36552,313.9618   L 550.9116,311.23959   L 558.26664,308.42186   L 565.52616,305.46086   L 572.59464,302.40434   L 579.51984,299.20455   L 586.30176,295.957   L 592.89264,292.51841   L 599.29248,289.03207   L 605.50128,285.40246   L 611.5668,281.67732   L 617.39352,277.85667   L 623.0292,273.89275   L 628.42608,269.88107   L 628.9992,269.35573   L 629.52456,268.87815   L 630.00216,268.35281   L 630.47976,267.82747  z    M 571.49616,165.95943   L 571.63944,165.43409   L 571.6872,164.95651   L 571.73496,164.52668   L 571.6872,164.09686   L 571.63944,163.7148   L 571.54392,163.38049   L 571.40064,163.04618   L 571.2096,162.71187   L 571.01856,162.42533   L 570.77976,162.18654   L 570.4932,161.94775   L 570.15888,161.75671   L 569.87232,161.56568   L 569.49024,161.47016   L 569.15592,161.32689   L 568.72608,161.27913   L 568.53504,161.18362   L 567.91416,161.04034   L 567.00672,160.80155   L 565.86048,160.515   L 564.57096,160.1807   L 563.28144,159.84639   L 562.03968,159.55984   L 560.9412,159.27329   L 560.41584,159.17777   L 559.89048,159.08226   L 559.36512,159.0345   L 558.83976,159.0345   L 558.3144,159.0345   L 557.8368,159.13002   L 557.31144,159.22553   L 556.83384,159.36881   L 556.35624,159.55984   L 555.87864,159.84639   L 555.4488,160.1807   L 555.06672,160.56276   L 554.68464,161.04034   L 554.35032,161.56568   L 554.016,162.18654   L 553.7772,162.90291   L 553.39512,163.90583   L 552.86976,165.5296   L 552.15336,167.72648   L 551.34144,170.35317   L 550.38624,173.40969   L 549.33552,176.80052   L 548.18928,180.38237   L 547.04304,184.15527   L 545.8968,187.97591   L 544.75056,191.84432   L 543.60432,195.61721   L 542.5536,199.24683   L 541.5984,202.68541   L 540.78648,205.78969   L 540.07008,208.5119   L 539.54472,210.75653   L 539.35368,211.75945   L 539.16264,212.71461   L 539.01936,213.66978   L 538.92384,214.57718   L 538.87608,215.48458   L 538.82832,216.34423   L 538.82832,217.15612   L 538.87608,217.92025   L 538.92384,218.68438   L 539.01936,219.44851   L 539.11488,220.16488   L 539.25816,220.83349   L 539.4492,221.45435   L 539.64024,222.0752   L 539.83128,222.6483   L 540.11784,223.2214   L 540.35664,223.74674   L 540.69096,224.22432   L 540.97752,224.7019   L 541.3596,225.08396   L 541.69392,225.46603   L 542.12376,225.84809   L 542.50584,226.1824   L 542.93568,226.46895   L 543.41328,226.70774   L 543.89088,226.94653   L 544.36848,227.0898   L 544.89384,227.28084   L 545.4192,227.37635   L 545.94456,227.47187   L 546.51768,227.47187   L 547.0908,227.51963   L 547.75944,227.42411   L 547.95048,227.42411   L 547.75944,227.71066   L 547.23408,228.57031   L 546.3744,229.95529   L 545.27592,231.7701   L 543.93864,233.96697   L 542.41032,236.40264   L 540.73872,239.12485   L 539.01936,241.94258   L 537.20448,244.85582   L 535.43736,247.76907   L 533.67024,250.68231   L 531.95088,253.40452   L 530.42256,255.9357   L 528.98976,258.22809   L 527.84352,260.13842   L 526.88832,261.66668   L 526.45848,262.38305   L 526.0764,263.09942   L 525.78984,263.72027   L 525.55104,264.24561   L 525.36,264.77095   L 525.21672,265.24853   L 525.16896,265.72611   L 525.16896,266.10818   L 525.21672,266.49024   L 525.31224,266.82455   L 525.45552,267.15886   L 525.69432,267.44541   L 525.93312,267.73196   L 526.26744,267.97075   L 526.64952,268.25729   L 527.07936,268.49608   L 528.13008,269.02142   L 529.51512,269.64228   L 530.99568,270.21538   L 532.524,270.83623   L 533.9568,271.36157   L 535.1508,271.74364   L 535.96272,272.03018   L 536.24928,272.1257   L 536.72688,272.31673   L 537.20448,272.46001   L 537.68208,272.60328   L 538.06416,272.65104   L 538.494,272.6988   L 538.87608,272.6988   L 539.2104,272.65104   L 539.54472,272.55552   L 539.87904,272.46001   L 540.1656,272.31673   L 540.45216,272.1257   L 540.73872,271.88691   L 540.97752,271.60036   L 541.26408,271.31381   L 541.50288,270.97951   L 541.74168,270.59744   L 542.69688,269.02142   L 544.9416,265.34405   L 548.23704,259.80411   L 552.48768,252.68815   L 557.45472,244.426   L 562.99488,235.16093   L 568.91712,225.32275   L 574.98264,215.19804   L 581.04816,205.02556   L 586.9704,195.13963   L 592.51056,185.87456   L 597.4776,177.56465   L 601.72824,170.40093   L 605.1192,164.81323   L 607.36392,160.99258   L 608.31912,159.32105   L 608.60568,158.84347   L 608.79672,158.36589   L 608.98776,157.88831   L 609.08328,157.41072   L 609.1788,156.93314   L 609.1788,156.50332   L 609.13104,156.0735   L 609.03552,155.64367   L 608.89224,155.26161   L 608.65344,154.9273   L 608.36688,154.593   L 608.03256,154.25869   L 607.60272,154.0199   L 607.12512,153.78111   L 606.59976,153.54232   L 605.97888,153.39904   L 605.69232,153.35129   L 604.97592,153.20801   L 603.87744,152.96922   L 602.54016,152.73043   L 601.0596,152.44388   L 599.53128,152.10957   L 598.05072,151.82303   L 596.80896,151.58424   L 596.23584,151.44096   L 595.71048,151.34545   L 595.23288,151.29769   L 594.80304,151.29769   L 594.42096,151.29769   L 594.03888,151.34545   L 593.6568,151.3932   L 593.32248,151.53648   L 592.98816,151.63199   L 592.7016,151.82303   L 592.41504,152.06182   L 592.12848,152.30061   L 591.84192,152.58716   L 591.60312,152.92146   L 591.31656,153.25577   L 591.03,153.68559   L 590.40912,154.73627   L 589.16736,156.93314   L 587.35248,160.13294   L 585.10776,164.14462   L 582.52872,168.77715   L 579.66312,173.93503   L 576.65424,179.3317   L 573.54984,184.9194   L 570.44544,190.50709   L 567.48432,195.856   L 564.71424,200.8706   L 562.23072,205.31211   L 560.12928,209.085   L 558.5532,211.99824   L 557.50248,213.86081   L 557.1204,214.52942   L 557.07264,214.52942   L 556.92936,214.52942   L 556.73832,214.48166   L 556.49952,214.33839   L 556.404,214.24287   L 556.30848,214.14736   L 556.26072,213.95633   L 556.21296,213.81305   L 556.21296,213.57426   L 556.21296,213.28771   L 556.26072,213.00116   L 556.35624,212.66686   L 556.54728,211.80721   L 557.07264,210.18343   L 557.8368,207.84329   L 558.74424,204.93004   L 559.89048,201.49146   L 561.08448,197.71857   L 562.42176,193.70689   L 563.75904,189.59969   L 565.09632,185.44473   L 566.4336,181.3853   L 567.67536,177.56465   L 568.8216,174.12606   L 569.82456,171.06954   L 570.63648,168.63388   L 571.2096,166.86683   L 571.49616,165.95943  z    M 502.62624,185.92232   L 505.10976,179.90479   L 505.3008,179.666   L 505.73064,179.09291   L 506.44704,178.32878   L 507.40224,177.37361   L 507.9276,176.89603   L 508.50072,176.46621   L 509.16936,176.03639   L 509.79024,175.65432   L 510.50664,175.32002   L 511.22304,175.08122   L 511.55736,174.98571   L 511.93944,174.89019   L 512.32152,174.84243   L 512.7036,174.84243   L 513.27672,174.84243   L 513.84984,174.98571   L 514.1364,175.08122   L 514.3752,175.17674   L 514.614,175.32002   L 514.80504,175.51105   L 515.04384,175.70208   L 515.23488,175.94087   L 515.37816,176.17966   L 515.52144,176.46621   L 515.61696,176.80052   L 515.71248,177.13482   L 515.76024,177.51689   L 515.808,177.89895   L 515.76024,178.51981   L 515.76024,179.18842   L 515.66472,179.90479   L 515.5692,180.66892   L 515.28264,182.24494   L 514.8528,183.96423   L 514.32744,185.73128   L 513.6588,187.59385   L 512.9424,189.45642   L 512.08272,191.31898   L 511.22304,193.18155   L 510.3156,194.99636   L 509.40816,196.71565   L 508.54848,198.38718   L 507.64104,199.9632   L 506.78136,201.49146   L 505.92168,202.97196   L 505.062,204.4047   L 504.20232,205.74193   L 503.34264,207.0314   L 502.53072,208.27311   L 501.7188,209.4193   L 500.90688,210.51774   L 500.09496,211.56842   L 499.3308,212.52358   L 498.56664,213.47874   L 497.80248,214.33839   L 497.08608,215.15028   L 496.36968,215.86665   L 495.70104,216.58302   L 495.0324,217.20388   L 494.36376,217.77697   L 493.79064,218.30231   L 493.16976,218.77989   L 492.59664,219.16196   L 492.07128,219.54402   L 491.54592,219.83057   L 491.06832,220.06936   L 490.63848,220.2604   L 490.20864,220.40367   L 489.82656,220.49919   L 489.49224,220.54694   L 489.20568,220.49919   L 488.91912,220.49919   L 488.63256,220.40367   L 488.44152,220.35591   L 488.1072,220.21264   L 488.01168,220.11712   L 502.62624,185.92232  z    M 451.0932,278.23874   L 452.90808,278.76408   L 454.38864,279.1939   L 455.8692,279.57597   L 457.58856,280.05355   L 458.16168,280.14906   L 458.68704,280.24458   L 459.2124,280.29234   L 459.69,280.29234   L 460.1676,280.24458   L 460.59744,280.19682   L 460.97952,280.10131   L 461.3616,280.00579   L 462.03024,279.71924   L 462.60336,279.38493   L 463.12872,279.05063   L 463.55856,278.66856   L 463.7496,278.47753   L 463.94064,278.19098   L 464.17944,277.90443   L 464.37048,277.52237   L 464.84808,276.71048   L 465.32568,275.75532   L 465.80328,274.65688   L 466.28088,273.51069   L 466.80624,272.36449   L 467.3316,271.17054   L 468.09576,269.35573   L 468.95544,267.15886   L 469.9584,264.72319   L 471.05688,262.00098   L 472.20312,259.08774   L 473.39712,256.12673   L 474.59112,253.07022   L 475.78512,250.10921   L 476.8836,247.19597   L 477.98208,244.52151   L 478.93728,241.99033   L 479.79696,239.84122   L 480.51336,238.02641   L 481.03872,236.64143   L 481.37304,235.73402   L 481.51632,235.44747   L 481.61184,235.54299   L 481.8984,235.73402   L 482.42376,236.02057   L 483.18792,236.30712   L 483.61776,236.49815   L 484.09536,236.64143   L 484.66848,236.7847   L 485.2416,236.88022   L 485.91024,236.97573   L 486.62664,237.07125   L 487.34304,237.11901   L 488.15496,237.11901   L 488.91912,237.07125   L 489.68328,237.02349   L 490.44744,236.92798   L 491.25936,236.7847   L 492.07128,236.64143   L 492.8832,236.45039   L 493.69512,236.2116   L 494.5548,235.97281   L 495.36672,235.68626   L 496.2264,235.35196   L 497.08608,235.01765   L 497.94576,234.63559   L 498.80544,234.20576   L 499.66512,233.77594   L 500.5248,233.29836   L 501.43224,232.77302   L 502.29192,232.24768   L 503.19936,231.67458   L 504.05904,231.05373   L 504.96648,230.43287   L 505.82616,229.76426   L 506.68584,229.04789   L 507.59328,228.33152   L 508.45296,227.56739   L 509.31264,226.7555   L 510.17232,225.94361   L 511.032,225.08396   L 511.89168,224.17656   L 512.75136,223.2214   L 513.56328,222.26624   L 514.42296,221.26332   L 515.23488,220.2604   L 516.5244,218.58886   L 517.76616,216.96509   L 519.00792,215.34131   L 520.15416,213.71753   L 521.3004,212.09376   L 522.39888,210.46998   L 523.4496,208.84621   L 524.45256,207.27019   L 525.40776,205.69417   L 526.36296,204.11815   L 527.22264,202.5899   L 528.08232,201.06164   L 528.84648,199.53338   L 529.61064,198.00512   L 530.32704,196.52462   L 530.99568,195.09187   L 531.61656,193.61137   L 532.23744,192.22639   L 532.7628,190.79364   L 533.28816,189.40866   L 533.718,188.07143   L 534.14784,186.7342   L 534.52992,185.44473   L 534.86424,184.15527   L 535.1508,182.91355   L 535.3896,181.7196   L 535.6284,180.52565   L 535.77168,179.3317   L 535.91496,178.23326   L 536.01048,177.13482   L 536.05824,176.08415   L 536.05824,175.03347   L 536.01048,174.22158   L 535.91496,173.40969   L 535.81944,172.5978   L 535.72392,171.83367   L 535.53288,171.06954   L 535.34184,170.35317   L 535.10304,169.6368   L 534.86424,168.96819   L 534.57768,168.29957   L 534.24336,167.63096   L 533.90904,167.0101   L 533.52696,166.43701   L 533.14488,165.81615   L 532.66728,165.29081   L 532.23744,164.76547   L 531.71208,164.28789   L 531.18672,163.81031   L 530.66136,163.33273   L 530.08824,162.95067   L 529.46736,162.5686   L 528.84648,162.18654   L 528.17784,161.85223   L 527.5092,161.56568   L 526.7928,161.27913   L 526.02864,161.0881   L 525.26448,160.84931   L 524.50032,160.70603   L 523.6884,160.56276   L 522.82872,160.46724   L 521.96904,160.37173   L 521.0616,160.37173   L 520.15416,160.37173   L 518.96016,160.41949   L 517.76616,160.56276   L 516.57216,160.80155   L 515.37816,161.0881   L 514.23192,161.47016   L 513.08568,161.89999   L 512.03496,162.42533   L 510.98424,163.04618   L 511.41408,161.89999   L 511.7484,161.13586   L 512.08272,160.27621   L 512.56032,159.0345   L 512.75136,158.4614   L 512.89464,157.88831   L 512.9424,157.36297   L 512.99016,156.88539   L 512.99016,156.4078   L 512.9424,155.97798   L 512.84688,155.59592   L 512.7036,155.21385   L 512.51256,154.87955   L 512.27376,154.593   L 512.03496,154.35421   L 511.7484,154.11542   L 511.41408,153.87662   L 511.07976,153.68559   L 510.69768,153.54232   L 510.3156,153.39904   L 503.53368,151.87078   L 502.1964,151.63199   L 501.43224,151.48872   L 501.05016,151.3932   L 500.95464,151.3932   L 500.47704,151.29769   L 500.0472,151.29769   L 499.66512,151.29769   L 499.23528,151.34545   L 498.8532,151.44096   L 498.47112,151.58424   L 498.08904,151.72751   L 497.70696,151.91854   L 497.37264,152.15733   L 497.03832,152.39612   L 496.75176,152.68267   L 496.4652,153.01698   L 496.17864,153.30353   L 495.93984,153.68559   L 495.70104,154.0199   L 495.51,154.40196   L 494.84136,155.97798   L 493.31304,159.75087   L 490.9728,165.33857   L 487.96392,172.45453   L 484.47744,180.85996   L 480.60888,190.17279   L 476.45376,200.05872   L 472.20312,210.32671   L 467.95248,220.54694   L 463.84512,230.43287   L 459.97656,239.7457   L 456.49008,248.10337   L 453.52896,255.21933   L 451.18872,260.80703   L 449.6604,264.53216   L 448.99176,266.06042   L 448.27536,267.73196   L 447.60672,269.35573   L 447.36792,270.11986   L 447.12912,270.78847   L 446.93808,271.31381   L 446.84256,271.79139   L 446.74704,272.36449   L 446.74704,272.93759   L 446.74704,273.46293   L 446.84256,273.98827   L 446.93808,274.46585   L 447.08136,274.84791   L 447.17688,275.22998   L 447.36792,275.56428   L 447.60672,275.99411   L 447.89328,276.37617   L 448.27536,276.75824   L 448.75296,277.1403   L 449.23056,277.42685   L 449.80368,277.76116   L 450.42456,277.99995   L 451.0932,278.23874  z    M 434.47272,185.92232   L 437.004,179.90479   L 437.14728,179.666   L 437.62488,179.09291   L 438.34128,178.32878   L 439.24872,177.37361   L 439.82184,176.89603   L 440.39496,176.46621   L 441.01584,176.03639   L 441.68448,175.65432   L 442.35312,175.32002   L 443.06952,175.08122   L 443.4516,174.98571   L 443.83368,174.89019   L 444.21576,174.84243   L 444.55008,174.84243   L 445.17096,174.84243   L 445.74408,174.98571   L 445.98288,175.08122   L 446.22168,175.17674   L 446.46048,175.32002   L 446.69928,175.51105   L 446.89032,175.70208   L 447.08136,175.94087   L 447.22464,176.17966   L 447.36792,176.46621   L 447.46344,176.80052   L 447.55896,177.13482   L 447.60672,177.51689   L 447.65448,177.89895   L 447.65448,178.51981   L 447.60672,179.18842   L 447.55896,179.90479   L 447.41568,180.66892   L 447.12912,182.24494   L 446.69928,183.96423   L 446.17392,185.73128   L 445.55304,187.59385   L 444.78888,189.45642   L 443.97696,191.31898   L 443.06952,193.18155   L 442.16208,194.99636   L 441.3024,196.71565   L 440.39496,198.38718   L 439.53528,199.9632   L 438.62784,201.49146   L 437.76816,202.97196   L 436.90848,204.4047   L 436.0488,205.74193   L 435.23688,207.0314   L 434.3772,208.27311   L 433.56528,209.4193   L 432.75336,210.51774   L 431.94144,211.56842   L 431.17728,212.52358   L 430.41312,213.47874   L 429.69672,214.33839   L 428.93256,215.15028   L 428.26392,215.86665   L 427.54752,216.58302   L 426.87888,217.20388   L 426.258,217.77697   L 425.63712,218.30231   L 425.064,218.77989   L 424.49088,219.16196   L 423.91776,219.54402   L 423.44016,219.83057   L 422.96256,220.06936   L 422.48496,220.2604   L 422.10288,220.40367   L 421.67304,220.49919   L 421.33872,220.54694   L 421.05216,220.49919   L 420.7656,220.49919   L 420.5268,220.40367   L 420.288,220.35591   L 420.00144,220.21264   L 419.85816,220.11712   L 434.47272,185.92232  z    M 382.93968,278.23874   L 384.75456,278.76408   L 386.28288,279.1939   L 387.71568,279.57597   L 389.43504,280.05355   L 390.00816,280.14906   L 390.53352,280.24458   L 391.05888,280.29234   L 391.53648,280.29234   L 392.01408,280.24458   L 392.44392,280.19682   L 392.826,280.10131   L 393.20808,280.00579   L 393.92448,279.71924   L 394.4976,279.38493   L 394.9752,279.05063   L 395.40504,278.66856   L 395.59608,278.47753   L 395.83488,278.19098   L 396.02592,277.90443   L 396.26472,277.52237   L 396.69456,276.71048   L 397.17216,275.75532   L 397.64976,274.65688   L 398.17512,273.51069   L 398.65272,272.36449   L 399.17808,271.17054   L 399.94224,269.35573   L 400.84968,267.15886   L 401.85264,264.72319   L 402.95112,262.00098   L 404.09736,259.08774   L 405.29136,256.12673   L 406.4376,253.07022   L 407.6316,250.10921   L 408.77784,247.19597   L 409.82856,244.52151   L 410.78376,241.99033   L 411.64344,239.84122   L 412.35984,238.02641   L 412.8852,236.64143   L 413.26728,235.73402   L 413.3628,235.44747   L 413.45832,235.54299   L 413.79264,235.73402   L 414.318,236.02057   L 415.0344,236.30712   L 415.46424,236.49815   L 415.9896,236.64143   L 416.51496,236.7847   L 417.13584,236.88022   L 417.75672,236.97573   L 418.47312,237.07125   L 419.23728,237.11901   L 420.0492,237.11901   L 420.7656,237.07125   L 421.52976,237.02349   L 422.34168,236.92798   L 423.10584,236.7847   L 423.91776,236.64143   L 424.72968,236.45039   L 425.5416,236.2116   L 426.40128,235.97281   L 427.26096,235.68626   L 428.07288,235.35196   L 428.93256,235.01765   L 429.79224,234.63559   L 430.65192,234.20576   L 431.55936,233.77594   L 432.41904,233.29836   L 433.27872,232.77302   L 434.18616,232.24768   L 435.04584,231.67458   L 435.95328,231.05373   L 436.81296,230.43287   L 437.67264,229.76426   L 438.58008,229.04789   L 439.43976,228.33152   L 440.29944,227.56739   L 441.20688,226.7555   L 442.06656,225.94361   L 442.92624,225.08396   L 443.73816,224.17656   L 444.59784,223.2214   L 445.45752,222.26624   L 446.26944,221.31107   L 447.08136,220.2604   L 448.37088,218.58886   L 449.6604,216.96509   L 450.8544,215.34131   L 452.0484,213.71753   L 453.19464,212.09376   L 454.24536,210.46998   L 455.29608,208.84621   L 456.3468,207.27019   L 457.302,205.69417   L 458.20944,204.11815   L 459.11688,202.5899   L 459.9288,201.06164   L 460.74072,199.53338   L 461.50488,198.00512   L 462.22128,196.52462   L 462.88992,195.09187   L 463.5108,193.61137   L 464.08392,192.22639   L 464.65704,190.79364   L 465.13464,189.40866   L 465.61224,188.07143   L 466.04208,186.7342   L 466.3764,185.44473   L 466.71072,184.15527   L 467.04504,182.91355   L 467.28384,181.7196   L 467.47488,180.52565   L 467.66592,179.3317   L 467.76144,178.23326   L 467.85696,177.13482   L 467.90472,176.08415   L 467.90472,175.03347   L 467.85696,174.22158   L 467.8092,173.40969   L 467.71368,172.5978   L 467.5704,171.83367   L 467.42712,171.06954   L 467.18832,170.35317   L 466.99728,169.6368   L 466.71072,168.96819   L 466.42416,168.29957   L 466.1376,167.63096   L 465.75552,167.0101   L 465.37344,166.43701   L 464.99136,165.81615   L 464.56152,165.29081   L 464.08392,164.76547   L 463.60632,164.28789   L 463.08096,163.81031   L 462.50784,163.33273   L 461.93472,162.95067   L 461.3616,162.5686   L 460.69296,162.18654   L 460.02432,161.85223   L 459.35568,161.56568   L 458.63928,161.27913   L 457.92288,161.0881   L 457.15872,160.84931   L 456.3468,160.70603   L 455.53488,160.56276   L 454.72296,160.46724   L 453.81552,160.37173   L 452.95584,160.37173   L 452.0484,160.37173   L 450.80664,160.41949   L 449.61264,160.56276   L 448.41864,160.80155   L 447.2724,161.0881   L 446.0784,161.47016   L 444.97992,161.89999   L 443.88144,162.42533   L 442.83072,163.04618   L 443.30832,161.89999   L 443.64264,161.13586   L 443.9292,160.27621   L 444.4068,159.0345   L 444.59784,158.4614   L 444.74112,157.88831   L 444.83664,157.36297   L 444.8844,156.88539   L 444.83664,156.4078   L 444.78888,155.97798   L 444.69336,155.59592   L 444.55008,155.21385   L 444.35904,154.87955   L 444.168,154.593   L 443.88144,154.35421   L 443.59488,154.11542   L 443.30832,153.87662   L 442.92624,153.68559   L 442.59192,153.54232   L 442.16208,153.39904   L 435.42792,151.87078   L 434.09064,151.63199   L 433.27872,151.48872   L 432.89664,151.3932   L 432.80112,151.3932   L 432.37128,151.29769   L 431.94144,151.29769   L 431.5116,151.29769   L 431.08176,151.34545   L 430.69968,151.44096   L 430.3176,151.58424   L 429.93552,151.72751   L 429.6012,151.91854   L 429.21912,152.15733   L 428.93256,152.39612   L 428.59824,152.68267   L 428.31168,153.01698   L 428.07288,153.30353   L 427.78632,153.68559   L 427.59528,154.0199   L 427.40424,154.40196   L 426.7356,155.97798   L 425.15952,159.75087   L 422.81928,165.33857   L 419.85816,172.45453   L 416.32392,180.85996   L 412.45536,190.17279   L 408.348,200.05872   L 404.09736,210.32671   L 399.84672,220.54694   L 395.6916,230.43287   L 391.82304,239.7457   L 388.33656,248.10337   L 385.37544,255.21933   L 383.08296,260.80703   L 381.50688,264.53216   L 380.83824,266.06042   L 380.12184,267.73196   L 379.50096,269.35573   L 379.2144,270.11986   L 378.9756,270.78847   L 378.83232,271.31381   L 378.7368,271.79139   L 378.64128,272.36449   L 378.59352,272.93759   L 378.64128,273.46293   L 378.68904,273.98827   L 378.78456,274.46585   L 378.92784,274.84791   L 379.07112,275.22998   L 379.2144,275.56428   L 379.4532,275.99411   L 379.78752,276.37617   L 380.1696,276.75824   L 380.59944,277.1403   L 381.07704,277.42685   L 381.65016,277.76116   L 382.27104,277.99995   L 382.93968,278.23874  z    M 324.38592,205.74193   L 325.43664,204.30919   L 326.58288,202.63765   L 327.77688,200.91836   L 329.01864,199.15131   L 330.21264,197.38426   L 331.35888,195.71273   L 332.45736,194.18447   L 333.41256,192.84724   L 333.8424,192.27414   L 334.17672,191.70105   L 334.41552,191.17571   L 334.60656,190.69813   L 334.70208,190.17279   L 334.74984,189.74296   L 334.70208,189.31314   L 334.60656,188.88332   L 334.41552,188.50125   L 334.12896,188.16695   L 333.74688,187.83264   L 333.31704,187.54609   L 332.83944,187.25954   L 332.26632,186.97299   L 331.59768,186.78196   L 330.88128,186.54317   L 329.59176,186.25662   L 328.35,186.01783   L 327.10824,185.77904   L 325.91424,185.58801   L 324.72024,185.44473   L 323.52624,185.34922   L 322.33224,185.2537   L 321.13824,185.15819   L 318.75024,185.11043   L 316.26672,185.15819   L 313.68768,185.2537   L 310.96536,185.39698   L 311.3952,184.72836   L 312.73248,182.96131   L 314.7384,180.14358   L 317.3652,176.51397   L 320.51736,172.16798   L 324.00384,167.34441   L 327.82464,162.09102   L 331.74096,156.59884   L 335.7528,151.10665   L 339.66912,145.66223   L 343.3944,140.4566   L 346.83312,135.68079   L 349.88976,131.47807   L 352.42104,127.99173   L 354.28368,125.36503   L 355.38216,123.74126   L 355.812,123.07265   L 356.14632,122.49955   L 356.38512,121.92645   L 356.5284,121.35335   L 356.62392,120.87577   L 356.62392,120.39819   L 356.57616,119.96837   L 356.43288,119.5863   L 356.24184,119.20424   L 356.00304,118.82217   L 355.76424,118.48787   L 355.42992,118.20132   L 354.71352,117.62822   L 353.9016,117.05512   L 352.89864,116.43427   L 351.56136,115.62238   L 349.79424,114.61946   L 347.64504,113.32999   L 347.02416,113.04344   L 346.45104,112.80465   L 345.92568,112.61362   L 345.40032,112.5181   L 344.87496,112.5181   L 344.3496,112.56586   L 343.872,112.61362   L 343.3944,112.75689   L 342.9168,112.94793   L 342.48696,113.13896   L 342.05712,113.42551   L 341.62728,113.71206   L 340.81536,114.33291   L 340.09896,115.00152   L 339.14376,115.95669   L 338.18856,117.00737   L 337.23336,118.1058   L 336.2304,119.29975   L 334.17672,121.87869   L 332.21856,124.50539   L 330.40368,126.98881   L 328.8276,129.2812   L 327.53808,131.14377   L 326.63064,132.43323   L 287.37192,188.93108   L 260.33976,193.4681   L 296.15976,149.43512   L 297.49704,147.66807   L 298.69104,145.94878   L 299.83728,144.22949   L 300.84024,142.5102   L 301.79544,140.83866   L 302.60736,139.11937   L 303.32376,137.49559   L 303.9924,135.82406   L 304.51776,134.20028   L 304.99536,132.57651   L 305.37744,131.00049   L 305.71176,129.42447   L 305.9028,127.84846   L 306.04608,126.3202   L 306.1416,124.79194   L 306.1416,123.26368   L 306.09384,122.40403   L 305.99832,121.54439   L 305.9028,120.68474   L 305.71176,119.82509   L 305.52072,118.96545   L 305.23416,118.1058   L 304.9476,117.24616   L 304.61328,116.38651   L 304.2312,115.57462   L 303.80136,114.76273   L 303.32376,113.95085   L 302.7984,113.13896   L 302.22528,112.37483   L 301.65216,111.65846   L 300.98352,110.94209   L 300.31488,110.22571   L 299.59848,109.5571   L 298.83432,108.93624   L 298.0224,108.36315   L 297.16272,107.79005   L 296.25528,107.21695   L 295.34784,106.73937   L 294.34488,106.30955   L 293.34192,105.87973   L 292.2912,105.49766   L 291.19272,105.21111   L 290.04648,104.92456   L 288.85248,104.68577   L 287.65848,104.5425   L 286.36896,104.39922   L 285.07944,104.35147   L 283.74216,104.35147   L 281.25864,104.44698   L 278.6796,104.59026   L 276.0528,104.82905   L 273.37824,105.1156   L 270.65592,105.4499   L 267.9336,105.87973   L 265.11576,106.30955   L 262.34568,106.83489   L 259.52784,107.36023   L 256.71,107.93332   L 253.89216,108.55418   L 251.07432,109.22279   L 248.30424,109.89141   L 245.53416,110.60778   L 242.76408,111.37191   L 240.04176,112.08828   L 234.7404,113.61654   L 229.63008,115.19256   L 224.80632,116.76857   L 220.26912,118.29683   L 216.16176,119.72958   L 212.43648,121.11456   L 209.1888,122.35627   L 206.46648,123.45471   L 201.59496,125.46055   L 197.10552,127.41863   L 192.85488,129.2812   L 188.8908,131.19152   L 186.93264,132.09893   L 185.02224,133.10185   L 183.1596,134.05701   L 181.29696,135.10769   L 179.43432,136.15837   L 177.57168,137.20905   L 175.70904,138.35524   L 173.79864,139.54919   L 173.27328,139.93126   L 172.6524,140.50435   L 171.98376,141.17297   L 171.26736,141.9371   L 170.55096,142.79674   L 169.7868,143.79966   L 168.97488,144.85034   L 168.21072,145.94878   L 167.3988,147.14273   L 166.63464,148.33668   L 165.87048,149.62615   L 165.10632,150.86786   L 164.38992,152.20509   L 163.72128,153.49456   L 163.14816,154.78403   L 162.57504,156.02574   L 162.1452,157.17193   L 161.76312,158.27037   L 161.38104,159.36881   L 161.04672,160.41949   L 160.52136,162.47308   L 160.09152,164.38341   L 159.7572,166.19822   L 159.56616,167.86975   L 159.47064,169.39801   L 159.47064,170.783   L 159.5184,171.6904   L 159.66168,172.50229   L 159.90048,173.31417   L 160.18704,174.0783   L 160.52136,174.79468   L 160.90344,175.46329   L 161.38104,176.03639   L 161.9064,176.56173   L 162.43176,177.08707   L 163.05264,177.51689   L 163.67352,177.8512   L 164.34216,178.13774   L 165.05856,178.37653   L 165.77496,178.56757   L 166.49136,178.66308   L 167.20776,178.66308   L 167.78088,178.66308   L 168.354,178.56757   L 168.87936,178.47205   L 169.45248,178.32878   L 170.0256,178.1855   L 170.59872,177.99447   L 171.2196,177.70792   L 171.79272,177.46913   L 173.03448,176.80052   L 174.324,176.03639   L 175.66128,175.12898   L 177.04632,174.0783   L 178.81344,172.69332   L 181.53576,170.5442   L 185.11776,167.72648   L 189.51168,164.33565   L 191.94744,162.52084   L 194.57424,160.56276   L 197.39208,158.55692   L 200.3532,156.45556   L 203.4576,154.35421   L 206.65752,152.15733   L 210.00072,150.00822   L 213.43944,147.81135   L 217.02144,145.66223   L 220.69896,143.51312   L 224.42424,141.41176   L 228.24504,139.35816   L 232.1136,137.40008   L 236.02992,135.48975   L 240.04176,133.7227   L 244.0536,132.05117   L 248.1132,130.52291   L 252.1728,129.13792   L 256.2324,127.89621   L 260.292,126.84554   L 264.3516,125.98589   L 268.36344,125.31728   L 272.37528,124.88745   L 276.33936,124.64866   L 277.05576,124.64866   L 277.77216,124.69642   L 278.48856,124.74418   L 279.1572,124.8397   L 279.8736,124.93521   L 280.49448,125.12624   L 281.11536,125.36503   L 281.68848,125.65158   L 282.21384,125.98589   L 282.69144,126.41571   L 283.12128,126.89329   L 283.50336,127.41863   L 283.64664,127.70518   L 283.78992,128.03949   L 283.9332,128.42155   L 284.02872,128.75586   L 284.12424,129.13792   L 284.172,129.56775   L 284.21976,129.99757   L 284.26752,130.47515   L 284.21976,131.14377   L 284.172,131.81238   L 284.02872,132.48099   L 283.83768,133.19736   L 283.64664,133.91374   L 283.36008,134.63011   L 283.02576,135.39424   L 282.69144,136.15837   L 282.2616,136.87474   L 281.87952,137.63887   L 281.40192,138.45076   L 280.92432,139.21489   L 279.8736,140.74315   L 278.77512,142.2714   L 277.58112,143.79966   L 276.38712,145.28017   L 275.19312,146.71291   L 273.99912,148.09789   L 271.7544,150.67683   L 269.93952,152.8737   L 234.2628,195.37842   L 229.43904,196.14255   L 224.80632,196.76341   L 220.4124,197.28875   L 216.3528,197.76633   L 212.62752,198.19615   L 209.37984,198.57821   L 206.60976,198.96028   L 204.46056,199.29459   L 202.64568,199.67665   L 201.02184,200.05872   L 200.30544,200.24975   L 199.58904,200.48854   L 198.87264,200.72733   L 198.25176,201.01388   L 197.63088,201.34818   L 197.05776,201.73025   L 196.5324,202.16007   L 196.00704,202.63765   L 195.52944,203.21075   L 195.0996,203.83161   L 194.66976,204.50022   L 194.28768,205.31211   L 193.52352,206.93588   L 192.80712,208.55966   L 192.09072,210.13568   L 191.37432,211.66394   L 190.75344,213.14444   L 190.13256,214.62494   L 189.6072,216.00992   L 189.1296,217.39491   L 188.98632,218.06352   L 188.84304,218.68438   L 188.74752,219.30523   L 188.74752,219.87833   L 188.79528,220.40367   L 188.8908,220.92901   L 189.08184,221.35883   L 189.3684,221.78865   L 189.55944,221.97969   L 189.70272,222.12296   L 189.94152,222.31399   L 190.18032,222.45727   L 190.70568,222.69606   L 191.32656,222.88709   L 192.04296,222.98261   L 192.85488,223.03037   L 193.76232,222.98261   L 194.81304,222.83933   L 197.05776,222.50503   L 199.398,222.17072   L 201.786,221.83641   L 204.174,221.45435   L 206.60976,221.07228   L 208.99776,220.69022   L 211.338,220.30815   L 213.67824,219.87833   L 212.81856,221.12004   L 210.57384,224.51087   L 207.37392,229.38219   L 203.60088,235.06541   L 199.73232,240.8919   L 196.15032,246.28856   L 193.28472,250.58679   L 191.61312,253.16573   L 191.13552,253.8821   L 190.70568,254.55072   L 190.37136,255.21933   L 190.0848,255.88794   L 189.846,256.5088   L 189.65496,257.12965   L 189.51168,257.70275   L 189.46392,258.27585   L 189.46392,258.80119   L 189.51168,259.27877   L 189.65496,259.75635   L 189.79824,260.23393   L 190.03704,260.616   L 190.3236,261.04582   L 190.70568,261.38013   L 191.08776,261.71443   L 191.5176,262.00098   L 191.94744,262.23977   L 192.42504,262.47856   L 192.99816,262.71735   L 194.1444,263.19493   L 195.43392,263.67252   L 196.7712,264.10234   L 198.15624,264.57992   L 199.44576,265.00974   L 200.73528,265.48732   L 201.3084,265.67836   L 201.83376,265.82163   L 202.40688,265.86939   L 202.88448,265.91715   L 203.36208,265.91715   L 203.83968,265.82163   L 204.26952,265.72611   L 204.74712,265.53508   L 205.1292,265.34405   L 205.55904,265.0575   L 205.94112,264.77095   L 206.3232,264.43665   L 206.75304,264.05458   L 207.13512,263.62476   L 207.5172,263.14718   L 207.89928,262.62184   L 208.61568,261.66668   L 209.9052,259.85187   L 211.76784,257.32069   L 214.01256,254.21641   L 216.5916,250.63455   L 219.40944,246.76615   L 222.41832,242.61119   L 225.47496,238.40848   L 228.5316,234.20576   L 231.44496,230.19408   L 234.16728,226.46895   L 236.55528,223.12588   L 238.60896,220.30815   L 240.18504,218.15904   L 241.188,216.77405   L 241.57008,216.24871   L 272.85288,210.80429   L 270.65592,215.48458   L 268.36344,220.16488   L 266.11872,224.84517   L 264.01728,229.28668   L 262.05912,233.39388   L 260.38752,237.02349   L 259.71888,238.64727   L 259.098,240.03225   L 258.6204,241.27396   L 258.28608,242.27688   L 257.76072,244.04393   L 257.28312,245.61995   L 256.90104,247.05269   L 256.61448,248.34216   L 256.37568,249.58387   L 256.18464,250.77783   L 256.08912,251.92402   L 256.08912,253.07022   L 256.18464,254.07314   L 256.28016,255.0283   L 256.4712,255.9357   L 256.71,256.74759   L 257.04432,257.51172   L 257.37864,258.18033   L 257.61744,258.51464   L 257.85624,258.80119   L 258.09504,259.08774   L 258.33384,259.37429   L 258.6204,259.61308   L 258.95472,259.85187   L 259.28904,260.09066   L 259.62336,260.28169   L 260.00544,260.47272   L 260.38752,260.66376   L 260.7696,260.80703   L 261.19944,260.9503   L 262.15464,261.14134   L 263.1576,261.28461   L 264.25608,261.38013   L 265.49784,261.38013   L 267.12168,261.23685   L 269.1276,260.9503   L 271.37232,260.616   L 273.6648,260.18617   L 275.90952,259.75635   L 278.01096,259.27877   L 279.73032,258.89671   L 280.97208,258.5624   L 281.40192,258.37137   L 281.83176,258.18033   L 282.21384,257.94154   L 282.59592,257.70275   L 282.93024,257.4162   L 283.2168,257.0819   L 283.4556,256.74759   L 283.6944,256.36553   L 283.83768,255.98346   L 283.98096,255.55364   L 284.07648,255.07606   L 284.12424,254.55072   L 284.12424,254.02538   L 284.07648,253.45228   L 283.98096,252.83143   L 283.88544,252.21057   L 283.6944,251.4942   L 283.59888,250.82558   L 283.4556,250.06145   L 283.40784,249.24957   L 283.36008,248.43768   L 283.31232,247.57803   L 283.31232,246.67063   L 283.40784,245.66771   L 283.50336,244.66479   L 283.64664,243.56635   L 283.88544,242.42016   L 284.12424,241.2262   L 284.45856,239.93674   L 284.84064,238.59951   L 285.31824,237.16677   L 285.8436,235.63851   L 286.46448,234.06249   L 287.18088,232.43871   L 287.94504,230.71942   L 288.80472,229.00013   L 290.66736,225.41827   L 292.62552,221.78865   L 294.63144,218.25455   L 296.63736,214.76821   L 298.45224,211.52066   L 300.12384,208.60742   L 302.3208,208.36863   L 304.47,208.22535   L 306.52368,208.17759   L 308.5296,208.17759   L 310.53552,208.22535   L 312.49368,208.36863   L 314.45184,208.55966   L 316.41,208.79845   L 317.65176,208.89397   L 318.75024,208.94172   L 319.22784,208.94172   L 319.7532,208.89397   L 320.2308,208.84621   L 320.66064,208.75069   L 321.13824,208.55966   L 321.56808,208.36863   L 322.04568,208.08208   L 322.47552,207.79553   L 322.95312,207.36571   L 323.43072,206.93588   L 323.90832,206.36279   L 324.38592,205.74193  z    M 352.4688,226.37343   L 351.84792,226.37343   L 351.32256,226.32568   L 350.7972,226.23016   L 350.36736,226.13464   L 349.98528,226.03913   L 349.6032,225.84809   L 349.31664,225.70482   L 349.03008,225.46603   L 348.83904,225.275   L 348.648,224.98845   L 348.50472,224.74966   L 348.36144,224.46311   L 348.26592,224.17656   L 348.21816,223.89001   L 348.1704,223.5557   L 348.1704,223.2214   L 348.1704,222.88709   L 348.21816,222.55278   L 348.31368,222.21848   L 348.4092,221.83641   L 348.55248,221.45435   L 348.74352,221.07228   L 348.98232,220.69022   L 349.22112,220.30815   L 349.50768,219.92609   L 349.79424,219.54402   L 350.17632,219.16196   L 350.5584,218.77989   L 351.37032,218.01576   L 352.32552,217.25163   L 352.85088,216.91733   L 353.37624,216.58302   L 353.94936,216.24871   L 354.57024,215.91441   L 355.19112,215.62786   L 355.812,215.34131   L 356.48064,215.05476   L 357.19704,214.81597   L 357.91344,214.62494   L 358.62984,214.38615   L 359.394,214.24287   L 360.15816,214.0996   L 360.97008,213.95633   L 361.782,213.86081   L 362.64168,213.81305   L 363.50136,213.76529   L 364.74312,213.71753   L 365.65056,213.76529   L 366.17592,213.81305   L 366.3192,213.81305   L 362.21184,223.5557   L 361.97304,223.65122   L 361.35216,223.98553   L 360.39696,224.41535   L 359.1552,224.94069   L 358.4388,225.17948   L 357.67464,225.41827   L 356.86272,225.65706   L 356.00304,225.89585   L 355.14336,226.03913   L 354.28368,226.1824   L 353.37624,226.32568   L 352.4688,226.37343  z    M 357.9612,239.45915   L 357.91344,239.84122   L 357.91344,240.22328   L 357.9612,240.60535   L 358.00896,240.93966   L 358.15224,241.32172   L 358.29552,241.60827   L 358.48656,241.94258   L 358.6776,242.22913   L 358.96416,242.51567   L 359.29848,242.75446   L 359.6328,242.99325   L 360.06264,243.18429   L 360.49248,243.32756   L 360.97008,243.47084   L 361.5432,243.56635   L 362.11632,243.66187   L 363.40584,243.75738   L 364.50432,243.80514   L 365.50728,243.80514   L 366.36696,243.80514   L 367.2744,243.80514   L 368.2296,243.75738   L 369.32808,243.70963   L 370.56984,243.66187   L 371.23848,243.66187   L 371.85936,243.61411   L 372.38472,243.51859   L 372.91008,243.42308   L 373.33992,243.2798   L 373.76976,243.13653   L 374.15184,242.89774   L 374.53392,242.65895   L 374.86824,242.32464   L 375.1548,241.99033   L 375.44136,241.56051   L 375.68016,241.13069   L 375.96672,240.60535   L 376.20552,239.98449   L 376.44432,239.36364   L 376.68312,238.64727   L 377.0652,237.54883   L 377.7816,235.8773   L 378.68904,233.63267   L 379.83528,230.91045   L 381.22032,227.80618   L 382.70088,224.31983   L 384.32472,220.54694   L 386.09184,216.4875   L 387.85896,212.33255   L 389.7216,208.03432   L 391.58424,203.68833   L 393.39912,199.34234   L 395.16624,195.04411   L 396.83784,190.93692   L 398.36616,186.97299   L 399.79896,183.29562   L 400.37208,181.91063   L 400.84968,180.57341   L 401.27952,179.23618   L 401.61384,177.94671   L 401.9004,176.65724   L 402.09144,175.36777   L 402.23472,174.17382   L 402.33024,172.93211   L 402.33024,171.78592   L 402.28248,170.63972   L 402.1392,169.54128   L 401.94816,168.49061   L 401.6616,167.48769   L 401.32728,166.48477   L 400.9452,165.5296   L 400.4676,164.66996   L 399.94224,163.81031   L 399.32136,162.99842   L 398.65272,162.23429   L 397.93632,161.51792   L 397.1244,160.84931   L 396.26472,160.22845   L 395.30952,159.70311   L 394.30656,159.17777   L 393.20808,158.74795   L 392.06184,158.36589   L 390.86784,158.03158   L 389.57832,157.79279   L 388.24104,157.60176   L 386.856,157.45848   L 385.37544,157.36297   L 383.79936,157.36297   L 382.74864,157.41072   L 381.69792,157.50624   L 380.59944,157.64952   L 379.4532,157.84055   L 378.30696,158.07934   L 377.16072,158.36589   L 376.01448,158.65244   L 374.82048,159.0345   L 373.62648,159.46432   L 372.48024,159.89415   L 371.23848,160.41949   L 370.04448,160.99258   L 368.85048,161.56568   L 367.65648,162.23429   L 366.41472,162.95067   L 365.22072,163.7148   L 364.02672,164.52668   L 362.83272,165.33857   L 361.68648,166.24597   L 360.49248,167.20114   L 359.34624,168.20406   L 358.2,169.25474   L 357.05376,170.35317   L 355.95528,171.49937   L 354.8568,172.74108   L 353.75832,173.98279   L 352.7076,175.27226   L 351.70464,176.65724   L 350.70168,178.04223   L 349.69872,179.52273   L 348.74352,181.05099   L 347.83608,182.62701   L 347.54952,183.24786   L 347.26296,183.82096   L 347.02416,184.39406   L 346.83312,184.96715   L 346.68984,185.49249   L 346.59432,186.01783   L 346.4988,186.54317   L 346.4988,187.02075   L 346.54656,187.45058   L 346.59432,187.92816   L 346.7376,188.31022   L 346.92864,188.74004   L 347.11968,189.07435   L 347.40624,189.40866   L 347.74056,189.74296   L 348.07488,190.02951   L 348.83904,190.45934   L 349.65096,190.8414   L 350.60616,191.17571   L 351.65688,191.51001   L 352.75536,191.79656   L 353.9016,192.03535   L 355.04784,192.22639   L 356.19408,192.41742   L 356.7672,192.46518   L 357.34032,192.51293   L 357.81792,192.46518   L 358.34328,192.41742   L 358.82088,192.36966   L 359.25072,192.27414   L 359.72832,192.08311   L 360.1104,191.89208   L 360.54024,191.70105   L 360.92232,191.4145   L 361.3044,191.12795   L 361.68648,190.79364   L 362.06856,190.36382   L 362.45064,189.934   L 362.83272,189.50417   L 363.16704,188.97883   L 364.26552,187.49833   L 365.31624,186.06559   L 366.41472,184.6806   L 367.5132,183.39114   L 368.61168,182.10167   L 369.6624,180.90771   L 370.76088,179.80928   L 371.8116,178.7586   L 372.91008,177.80344   L 373.9608,176.99155   L 375.01152,176.22742   L 376.01448,175.60656   L 376.53984,175.36777   L 377.01744,175.12898   L 377.5428,174.89019   L 378.0204,174.74692   L 378.54576,174.60364   L 379.02336,174.50813   L 379.50096,174.41261   L 379.97856,174.41261   L 380.36064,174.41261   L 380.74272,174.46037   L 381.07704,174.50813   L 381.3636,174.60364   L 381.65016,174.74692   L 381.88896,174.93795   L 382.08,175.17674   L 382.22328,175.41553   L 382.3188,175.74984   L 382.36656,176.08415   L 382.36656,176.46621   L 382.3188,176.89603   L 382.22328,177.42137   L 382.03224,177.94671   L 381.79344,178.51981   L 381.50688,179.18842   L 380.59944,181.05099   L 379.40544,183.72544   L 378.0204,186.78196   L 376.5876,190.02951   L 375.20256,193.13379   L 374.10408,195.71273   L 373.29216,197.47978   L 373.0056,198.14839   L 372.528,198.10063   L 371.38176,198.10063   L 370.09224,198.05288   L 369.1848,198.05288   L 367.46544,198.05288   L 366.03264,198.14839   L 364.59984,198.29167   L 363.11928,198.4827   L 361.68648,198.72149   L 360.20592,199.00804   L 358.72536,199.34234   L 357.29256,199.67665   L 355.85976,200.10647   L 354.42696,200.58405   L 352.99416,201.10939   L 351.56136,201.63473   L 350.17632,202.25559   L 348.79128,202.87644   L 347.454,203.59282   L 346.11672,204.30919   L 344.8272,205.02556   L 343.53768,205.83745   L 342.34368,206.64933   L 341.14968,207.50898   L 339.95568,208.41638   L 338.8572,209.32379   L 337.75872,210.27895   L 336.75576,211.28187   L 335.7528,212.28479   L 334.84536,213.33547   L 333.98568,214.43391   L 333.17376,215.53234   L 332.4096,216.63078   L 331.6932,217.77697   L 331.07232,218.97093   L 330.54696,220.16488   L 330.0216,221.35883   L 329.63952,222.55278   L 329.25744,223.74674   L 328.97088,224.84517   L 328.73208,225.99137   L 328.5888,227.0898   L 328.49328,228.14048   L 328.44552,229.19116   L 328.44552,230.19408   L 328.49328,231.14924   L 328.5888,232.10441   L 328.77984,233.01181   L 328.97088,233.91921   L 329.25744,234.7311   L 329.59176,235.54299   L 329.92608,236.35488   L 330.35592,237.07125   L 330.83352,237.78762   L 331.35888,238.45623   L 331.88424,239.07709   L 332.50512,239.65019   L 333.126,240.17553   L 333.79464,240.70087   L 334.51104,241.13069   L 335.2752,241.56051   L 336.08712,241.89482   L 336.89904,242.22913   L 337.80648,242.46792   L 338.71392,242.70671   L 339.62136,242.84998   L 340.62432,242.99325   L 341.57952,243.04101   L 342.63024,243.04101   L 343.77648,242.99325   L 344.92272,242.89774   L 346.0212,242.75446   L 347.11968,242.61119   L 348.21816,242.3724   L 349.26888,242.13361   L 350.27184,241.84706   L 351.2748,241.465   L 352.27776,241.08293   L 353.28072,240.60535   L 354.23592,240.12777   L 355.19112,239.55467   L 356.14632,238.93382   L 357.05376,238.31296   L 358.00896,237.59659   L 358.9164,236.7847   L 358.2,238.40848   L 358.05672,238.93382   L 357.9612,239.45915  z    M 637.50048,152.8737   L 638.79,154.44972   L 640.07952,155.93022   L 641.36904,157.31521   L 642.65856,158.60468   L 643.90032,159.75087   L 645.18984,160.75379   L 646.4316,161.70895   L 647.67336,162.52084   L 648.86736,163.18946   L 650.0136,163.76255   L 651.15984,164.24013   L 652.21056,164.57444   L 653.21352,164.81323   L 654.16872,164.90875   L 655.0284,164.90875   L 655.84032,164.76547   L 656.55672,164.47892   L 657.1776,164.09686   L 657.75072,163.61928   L 658.18056,162.95067   L 658.51488,162.23429   L 658.75368,161.32689   L 658.8492,160.32397   L 658.80144,159.17777   L 658.65816,157.93606   L 658.3716,156.50332   L 657.94176,154.97506   L 657.36864,153.35129   L 656.65224,151.53648   L 655.7448,149.62615   L 654.69408,147.57255   L 653.45232,145.37568   L 652.06728,143.08329   L 650.58672,140.83866   L 649.0584,138.54627   L 647.43456,136.30164   L 645.76296,134.00925   L 643.94808,131.76462   L 642.08544,129.51999   L 640.17504,127.2276   L 638.16912,124.98297   L 636.06768,122.73834   L 633.91848,120.49371   L 631.72152,118.24908   L 629.42904,116.0522   L 627.0888,113.85533   L 624.65304,111.65846   L 622.16952,109.46158   L 619.59048,107.26471   L 617.01144,105.1156   L 614.33688,103.01424   L 611.61456,100.86512   L 608.79672,98.763768   L 605.97888,96.710169   L 603.06552,94.608813   L 600.15216,92.602972   L 597.14328,90.597131   L 594.08664,88.591291   L 591.03,86.633208   L 587.87784,84.675126   L 584.67792,82.764802   L 581.478,80.902235   L 578.18256,79.039669   L 574.88712,77.224861   L 569.72904,74.550407   L 564.47544,71.875953   L 559.12632,69.297015   L 553.68168,66.813593   L 548.14152,64.37793   L 542.45808,61.990025   L 536.72688,59.697635   L 530.90016,57.500762   L 524.97792,55.351647   L 518.96016,53.298049   L 512.84688,51.292208   L 506.63808,49.381884   L 500.38152,47.567076   L 494.02944,45.800026   L 487.6296,44.128492   L 481.13424,42.552474   L 474.59112,41.071973   L 468.00024,39.686988   L 461.31384,38.349761   L 454.57968,37.155808   L 447.79776,36.009614   L 440.96808,34.958935   L 434.04288,34.003773   L 427.11768,33.144127   L 420.14472,32.379997   L 413.124,31.711384   L 406.05552,31.186045   L 398.93928,30.708464   L 391.77528,30.326399   L 384.61128,30.087608   L 377.44728,29.896576   L 370.18776,29.848818   L 370.18776,29.848818   L 363.26256,29.944334   L 356.48064,30.087608   L 349.79424,30.278641   L 343.20336,30.565189   L 336.708,30.851738   L 330.40368,31.233803   L 324.14712,31.663626   L 318.03384,32.141207   L 312.06384,32.666546   L 306.18936,33.239643   L 300.4104,33.860499   L 294.77472,34.529112   L 289.28232,35.197726   L 283.88544,35.961856   L 278.63184,36.725985   L 273.47376,37.537873   L 267.31272,38.588551   L 261.34272,39.686988   L 255.61152,40.833183   L 250.0236,42.027135   L 244.62672,43.268846   L 239.37312,44.510557   L 234.35832,45.800026   L 229.53456,47.089495   L 224.90184,48.426722   L 220.46016,49.811707   L 216.20952,51.196692   L 212.19768,52.581677   L 208.32912,53.966662   L 204.6516,55.351647   L 201.21288,56.784391   L 197.9652,58.169376   L 197.91744,58.217134   L 195.72048,59.31557   L 193.61904,60.461765   L 191.5176,61.655718   L 189.46392,62.945187   L 187.458,64.234656   L 185.49984,65.571883   L 183.6372,66.90911   L 181.87008,68.294095   L 180.10296,69.726838   L 178.43136,71.207339   L 176.85528,72.687841   L 175.42248,74.120584   L 174.13296,75.553327   L 172.98672,76.938312   L 172.46136,77.606926   L 171.98376,78.275539   L 171.55392,78.944153   L 171.12408,79.565008   L 170.88528,80.042589   L 170.69424,80.472412   L 170.5032,80.854477   L 170.35992,81.2843   L 170.2644,81.666365   L 170.21664,82.04843   L 170.16888,82.430495   L 170.16888,82.81256   L 170.21664,83.337899   L 170.35992,83.81548   L 170.55096,84.245303   L 170.83752,84.675126   L 171.17184,85.009433   L 171.55392,85.248223   L 171.98376,85.439256   L 172.46136,85.58253   L 172.79568,85.630288   L 173.17776,85.630288   L 173.55984,85.58253   L 173.94192,85.534772   L 174.324,85.439256   L 174.75384,85.295981   L 175.23144,85.104949   L 175.66128,84.913917   L 176.99856,84.245303   L 178.3836,83.576689   L 179.91192,82.860318   L 181.53576,82.096188   L 183.25512,81.332058   L 185.07,80.520171   L 186.9804,79.708283   L 189.03408,78.848637   L 191.13552,77.988991   L 193.33248,77.129345   L 195.67272,76.269699   L 198.06072,75.410053   L 200.54424,74.550407   L 203.07552,73.690761   L 205.75008,72.878873   L 208.4724,72.019227   L 208.52016,72.019227   L 212.48424,70.777516   L 216.63936,69.535806   L 220.89,68.341853   L 225.33168,67.1479   L 229.82112,66.001706   L 234.5016,64.855511   L 239.22984,63.757075   L 244.10136,62.658638   L 249.02064,61.60796   L 254.03544,60.605039   L 259.14576,59.602119   L 264.30384,58.646957   L 269.50968,57.739553   L 274.81104,56.832149   L 280.1124,55.972503   L 285.46152,55.160615   L 291.00168,54.348727   L 296.54184,53.584597   L 302.082,52.915984   L 307.62216,52.24737   L 313.16232,51.674273   L 318.65472,51.101176   L 324.19488,50.623595   L 329.63952,50.146014   L 335.08416,49.716191   L 340.48104,49.381884   L 345.83016,49.047577   L 351.13152,48.808787   L 356.33736,48.569996   L 361.44768,48.378964   L 366.46248,48.235689   L 371.42952,48.140173   L 371.42952,48.140173   L 378.498,48.235689   L 385.51872,48.378964   L 392.49168,48.665512   L 399.41688,48.999819   L 406.24656,49.4774   L 413.02848,50.050497   L 419.76264,50.719111   L 426.40128,51.483241   L 432.99216,52.342887   L 439.53528,53.298049   L 445.98288,54.348727   L 452.33496,55.447164   L 458.63928,56.641116   L 464.89584,57.930585   L 471.05688,59.31557   L 477.17016,60.748314   L 483.18792,62.276573   L 489.11016,63.900349   L 494.98464,65.524125   L 500.7636,67.291175   L 506.4948,69.105983   L 512.08272,70.968549   L 517.62288,72.878873   L 523.11528,74.884714   L 528.4644,76.938312   L 533.76576,79.039669   L 538.9716,81.188784   L 544.08192,83.433415   L 549.09672,85.678046   L 554.016,88.018194   L 558.83976,90.358341   L 563.61576,92.794004   L 566.76792,94.41778   L 569.87232,96.137072   L 572.97672,97.904122   L 575.9856,99.671172   L 578.94672,101.48598   L 581.90784,103.34855   L 584.77344,105.21111   L 587.59128,107.12144   L 590.36136,109.03176   L 593.08368,110.94209   L 595.75824,112.90017   L 598.38504,114.85825   L 600.91632,116.86409   L 603.4476,118.82217   L 605.88336,120.82801   L 608.27136,122.83385   L 610.56384,124.79194   L 612.85632,126.79778   L 615.05328,128.80362   L 617.20248,130.7617   L 619.25616,132.71978   L 621.26208,134.67787   L 623.22024,136.63595   L 625.08288,138.54627   L 626.89776,140.4566   L 628.61712,142.31916   L 630.28872,144.13397   L 631.8648,145.94878   L 633.39312,147.76359   L 634.82592,149.48288   L 636.21096,151.20217   L 637.50048,152.8737  z    M 110.18232,145.75775   L 111.37632,143.79966   L 112.66584,141.9371   L 114.00312,140.02677   L 115.3404,138.21197   L 116.7732,136.39716   L 118.25376,134.58235   L 119.73432,132.86306   L 121.3104,131.09601   L 122.88648,129.42447   L 124.55808,127.75294   L 126.22968,126.08141   L 127.9968,124.45763   L 129.76392,122.83385   L 131.62656,121.25784   L 133.4892,119.68182   L 135.3996,118.15356   L 137.40552,116.6253   L 139.41144,115.1448   L 141.46512,113.61654   L 143.61432,112.1838   L 145.76352,110.70329   L 147.96048,109.27055   L 150.2052,107.83781   L 152.54544,106.40507   L 154.88568,104.97232   L 157.27368,103.58734   L 159.7572,102.20235   L 162.24072,100.81737   L 164.772,99.432381   L 167.35104,98.095154   L 170.0256,96.710169   L 172.70016,95.372942   L 176.90304,93.271585   L 181.2492,91.265745   L 185.69088,89.307662   L 190.22808,87.397338   L 194.90856,85.487014   L 199.73232,83.672206   L 204.6516,81.905156   L 209.6664,80.185864   L 214.82448,78.51433   L 220.07808,76.890554   L 225.47496,75.314537   L 231.01512,73.834035   L 236.6508,72.353534   L 242.382,70.968549   L 248.30424,69.67908   L 254.27424,68.389611   L 260.43528,67.195658   L 266.69184,66.097222   L 273.04392,65.046543   L 279.53928,64.043623   L 286.17792,63.136219   L 292.95984,62.276573   L 299.83728,61.512443   L 306.858,60.796072   L 313.97424,60.175216   L 321.23376,59.649877   L 328.63656,59.172296   L 336.18264,58.790231   L 343.82424,58.503683   L 351.60912,58.264892   L 359.53728,58.169376   L 367.60872,58.121618   L 367.60872,58.121618   L 372.09816,58.121618   L 376.5876,58.217134   L 381.22032,58.31265   L 385.85304,58.503683   L 390.53352,58.742473   L 395.30952,59.029022   L 400.13328,59.411087   L 405.0048,59.84091   L 409.97184,60.366249   L 414.93888,60.939346   L 420.0492,61.560202   L 425.15952,62.324331   L 430.3176,63.136219   L 435.5712,64.043623   L 440.92032,64.998785   L 446.26944,66.097222   L 451.71408,67.291175   L 457.25424,68.580643   L 462.7944,69.965629   L 468.43008,71.44613   L 474.16128,73.069906   L 479.94024,74.789198   L 485.76696,76.651764   L 491.6892,78.609846   L 494.69808,79.612767   L 497.6592,80.663445   L 500.66808,81.761881   L 503.72472,82.860318   L 506.78136,84.006512   L 509.838,85.200465   L 512.9424,86.442176   L 516.0468,87.683887   L 519.1512,88.973356   L 522.30336,90.262825   L 525.45552,91.64781   L 528.65544,93.032795   L 531.85536,94.465538   L 535.05528,95.898281   L 538.30296,97.426541   L 541.55064,98.9548   L 541.5984,99.002558   L 543.41328,100.00548   L 545.13264,101.10392   L 546.852,102.20235   L 548.5236,103.3963   L 550.09968,104.63802   L 551.67576,105.97524   L 552.39216,106.64386   L 553.15632,107.36023   L 553.87272,108.0766   L 554.58912,108.84073   L 555.25776,109.60486   L 555.97416,110.41675   L 556.59504,111.22863   L 557.26368,112.08828   L 557.88456,112.99568   L 558.50544,113.90309   L 559.07856,114.81049   L 559.65168,115.81341   L 560.17704,116.81633   L 560.7024,117.81925   L 561.18,118.86993   L 561.6576,119.96837   L 562.1352,121.11456   L 562.56504,122.26076   L 562.99488,123.45471   L 563.37696,124.69642   L 563.568,125.60382   L 563.71128,126.41571   L 563.71128,126.84554   L 563.71128,127.2276   L 563.66352,127.56191   L 563.61576,127.89621   L 563.52024,128.27828   L 563.42472,128.66034   L 563.28144,128.99465   L 563.13816,129.32896   L 562.94712,129.61551   L 562.70832,129.8543   L 562.51728,130.14085   L 562.23072,130.33188   L 561.99192,130.52291   L 561.70536,130.71394   L 561.4188,130.85722   L 561.13224,131.00049   L 560.79792,131.09601   L 560.51136,131.14377   L 560.17704,131.19152   L 559.84272,131.23928   L 559.46064,131.23928   L 559.07856,131.23928   L 558.64872,131.19152   L 558.26664,131.09601   L 557.8368,131.00049   L 557.45472,130.85722   L 557.02488,130.66618   L 556.6428,130.47515   L 552.86976,128.61259   L 549.09672,126.84554   L 545.37144,125.07849   L 541.69392,123.31144   L 538.0164,121.6399   L 534.38664,120.01613   L 530.80464,118.39235   L 527.22264,116.81633   L 523.6884,115.28807   L 520.15416,113.80757   L 516.66768,112.32707   L 513.1812,110.94209   L 509.74248,109.5571   L 506.35152,108.21987   L 502.96056,106.9304   L 499.5696,105.64094   L 496.2264,104.39922   L 492.8832,103.20527   L 489.58776,102.05908   L 486.34008,100.96064   L 483.04464,99.862204   L 479.84472,98.811526   L 476.59704,97.760848   L 473.39712,96.757927   L 470.1972,95.802765   L 467.04504,94.895361   L 463.89288,93.987957   L 460.78848,93.128311   L 457.63632,92.316423   L 454.53192,91.504535   L 451.47528,90.740406   L 448.37088,89.976276   L 445.31424,89.259904   L 442.30536,88.591291   L 439.24872,87.922677   L 436.23984,87.301822   L 433.23096,86.728725   L 430.22208,86.155627   L 427.26096,85.58253   L 424.25208,85.104949   L 421.29096,84.57961   L 418.32984,84.149787   L 415.36872,83.672206   L 412.4076,83.290141   L 406.53312,82.526011   L 400.7064,81.857398   L 394.87968,81.2843   L 389.05296,80.806719   L 383.22624,80.424654   L 377.39952,80.090348   L 371.5728,79.851557   L 365.74608,79.708283   L 359.91936,79.612767   L 354.09264,79.565008   L 354.09264,79.565008   L 346.88088,79.612767   L 339.8124,79.756041   L 332.83944,79.899315   L 326.00976,80.185864   L 319.2756,80.520171   L 312.63696,80.902235   L 306.1416,81.332058   L 299.74176,81.905156   L 293.43744,82.478253   L 287.2764,83.146867   L 281.21088,83.863238   L 275.28864,84.627368   L 269.41416,85.487014   L 263.68296,86.394418   L 258.04728,87.34958   L 252.55488,88.3525   L 247.158,89.450937   L 241.85664,90.597131   L 236.6508,91.743326   L 231.58824,92.985037   L 226.6212,94.274506   L 221.74968,95.611733   L 216.97368,96.996718   L 212.34096,98.477219   L 207.756,99.957721   L 203.31432,101.48598   L 199.01592,103.01424   L 194.76528,104.63802   L 190.65792,106.30955   L 186.64608,108.02884   L 182.72976,109.74813   L 178.90896,111.51518   L 176.56872,112.66138   L 174.324,113.80757   L 172.07928,114.95377   L 169.88232,116.14772   L 167.73312,117.34167   L 165.63168,118.58338   L 163.578,119.82509   L 161.57208,121.0668   L 159.61392,122.30852   L 157.65576,123.59798   L 155.79312,124.88745   L 153.93048,126.17692   L 152.1156,127.46639   L 150.34848,128.80362   L 148.62912,130.14085   L 146.90976,131.47807   L 145.23816,132.8153   L 143.66208,134.15253   L 142.03824,135.48975   L 140.50992,136.82698   L 139.02936,138.21197   L 137.5488,139.54919   L 136.116,140.93418   L 134.6832,142.2714   L 132.00864,144.99362   L 129.4296,147.71583   L 126.99384,150.43804   L 124.70136,153.1125   L 123.60288,154.40196   L 122.45664,155.59592   L 121.26264,156.74211   L 120.1164,157.74503   L 118.97016,158.65244   L 117.82392,159.51208   L 116.67768,160.27621   L 115.5792,160.89707   L 114.52848,161.47016   L 113.43,161.89999   L 112.42704,162.28205   L 111.47184,162.5686   L 110.5644,162.71187   L 109.65696,162.75963   L 108.8928,162.75963   L 108.12864,162.61636   L 107.46,162.37757   L 106.88688,161.9955   L 106.36152,161.56568   L 105.97944,160.99258   L 105.64512,160.37173   L 105.40632,159.55984   L 105.3108,158.70019   L 105.3108,157.69727   L 105.45408,156.59884   L 105.69288,155.40488   L 106.07496,154.06766   L 106.60032,152.63491   L 107.26896,151.10665   L 108.08088,149.43512   L 109.03608,147.66807   L 110.18232,145.75775  z   "
     style="fill:#ff0000;fill-rule:evenodd;fill-opacity:1;stroke:none;" />
</svg>
